# Alias OBJ Model File
# Exported from SketchUp, (c) 2000-2012 Trimble Navigation Limited
# File units = millimeters

mtllib train.mtl

g Mesh1 Model

usemtl FrontColor
v 5724 0 -0
vt -225.354 0
vn 0 -1 -0
v 0 0 -0
vt 0 0
v 0 0 -4622
vt 0 181.969
v 5724 0 -4622
vt -225.354 181.969
f 1/1/1 2/2/1 3/3/1 4/4/1 

vt 225.354 0
vn 0 0 1
v 5545.19 178.808 -0
vt 218.315 7.03968
f 1/5/2 5/6/2 2/2/2

v 5724 1740 -0
vt 225.354 68.5039
f 5/6/2 1/5/2 6/7/2

usemtl Aluminum
vn 1 0 -0
v 5724 779.086 -622.177
vt 0.408253 0.511212
vt 0 1.14173
f 1/2/3 7/8/3 6/9/3

vt 3.03281 0
f 7/8/3 1/2/3 4/10/3

v 5724 779.086 -1244.18
vt 0.816389 0.511212
f 7/8/3 4/10/3 8/11/3

v 5724 1325.09 -1244.18
vt 0.816389 0.869479
f 8/11/3 4/10/3 9/12/3

v 5724 1740 -4622
vt 3.03281 1.14173
f 10/13/3 9/12/3 4/10/3

v 5724 1325.09 -622.177
vt 0.408253 0.869479
f 10/13/3 11/14/3 9/12/3

f 6/9/3 11/14/3 10/13/3

f 11/14/3 6/9/3 7/8/3

usemtl FrontColor
vt -225.354 52.1688
vn 0 0 -1
vt -225.354 30.6727
v 5545.19 779.086 -622.177
vt -218.315 30.6727
v 5545.19 1325.09 -622.177
vt -218.315 52.1688
f 11/15/4 7/16/4 12/17/4 13/18/4 

vt 225.354 24.4952
vn 0 1 -0
vt 225.354 48.9833
v 5545.19 779.086 -1244.18
vt 218.315 48.9833
v 5545.19 779.086 -1186.44
vt 218.315 46.7104
v 5545.19 779.086 -1093.44
vt 218.315 43.049
vt 218.315 24.4952
f 7/19/5 8/20/5 14/21/5 15/22/5 16/23/5 12/24/5 

vt 225.354 30.6727
vt 225.354 52.1688
v 5545.19 1325.09 -1244.18
vt 218.315 52.1688
vt 218.315 30.6727
f 8/25/2 9/26/2 17/27/2 14/28/2 

vt -225.354 48.9833
vt -225.354 24.4952
vt -218.315 24.4952
vt -218.315 48.9833
f 9/29/1 11/30/1 13/31/1 17/32/1 

usemtl Translucent_Glass_Blue
vt -46.7104 30.6727
vn -1 0 -0
vt -43.049 30.6727
vt -24.4952 30.6727
vt -24.4952 52.1688
vt -48.9833 52.1688
vt -48.9833 30.6727
f 15/33/6 16/34/6 12/35/6 13/36/6 17/37/6 14/38/6 

usemtl FrontColor
v 5545.19 178.808 -2565
vt -100.984 7.03968
f 18/39/6 16/34/6 15/33/6

f 18/39/6 12/35/6 16/34/6

vt 0 7.03968
f 5/40/6 12/35/6 18/39/6

f 12/35/6 5/40/6 13/36/6

v 5545.19 1561.19 -0
vt 0 61.4643
f 19/41/6 13/36/6 5/40/6

v 5545.19 1561.19 -2565
vt -100.984 61.4643
f 13/36/6 19/41/6 20/42/6

vt -218.315 0
v 178.808 1561.19 -0
vt -7.03968 0
v 178.808 1561.19 -2565
vt -7.03968 100.984
vt -218.315 100.984
f 19/43/1 21/44/1 22/45/1 20/46/1 

vt 218.315 61.4643
vt 7.03968 61.4643
f 19/47/2 6/7/2 21/48/2

f 5/6/2 6/7/2 19/47/2

v 0 1740 -0
vt 0 68.5039
f 23/49/2 21/48/2 6/7/2

v 178.808 178.808 -0
vt 7.03968 7.03968
f 23/49/2 24/50/2 21/48/2

f 2/2/2 24/50/2 23/49/2

f 24/50/2 2/2/2 5/6/2

vt 7.03968 0
vt 218.315 0
vt 218.315 100.984
v 178.808 178.808 -2565
vt 7.03968 100.984
f 24/51/5 5/52/5 18/53/5 25/54/5 

f 20/47/2 22/48/2 25/50/2 18/6/2 

vt 100.984 7.03968
vt 100.984 61.4643
f 21/41/3 24/40/3 25/55/3 22/56/3 

f 18/39/6 14/38/6 20/42/6

f 18/39/6 15/33/6 14/38/6

f 17/37/6 20/42/6 14/38/6

f 13/36/6 20/42/6 17/37/6

vt -181.969 0
v 0 1740 -4622
vt -181.969 68.5039
f 3/57/6 2/2/6 23/49/6 26/58/6 

vt 225.354 181.969
f 23/2/5 6/5/5 10/59/5 26/3/5 

vt -225.354 68.5039
f 4/1/4 3/2/4 26/49/4 10/60/4 

